IKResults
version=1
nRows=13
nColumns=40
inDegrees=yes

Units are S.I. units (second, meters, Newtons, ...)
Angles are in degrees.

endheader
time	pelvis_tilt	pelvis_list	pelvis_rotation	pelvis_tx	pelvis_ty	pelvis_tz	hip_flexion_r	hip_adduction_r	hip_rotation_r	knee_angle_r	knee_angle_r_beta	ankle_angle_r	subtalar_angle_r	mtp_angle_r	hip_flexion_l	hip_adduction_l	hip_rotation_l	knee_angle_l	knee_angle_l_beta	ankle_angle_l	subtalar_angle_l	mtp_angle_l	lumbar_extension	lumbar_bending	lumbar_rotation	arm_flex_r	arm_add_r	arm_rot_r	elbow_flex_r	pro_sup_r	wrist_flex_r	wrist_dev_r	arm_flex_l	arm_add_l	arm_rot_l	elbow_flex_l	pro_sup_l	wrist_flex_l	wrist_dev_l
      0.00000000	     14.15798323	      4.41415925	     -6.27871727	     -1.09979311	      0.93766877	      1.47928237	    -27.33573278	     -8.59393362	     -2.12026386	    -21.84760886	     -0.38131271	      7.85549488	     -5.36390988	     -2.03360084	      0.68143863	     -0.94595971	     22.66697967	    -15.26941339	     -0.26650154	     -1.13468125	     -7.75647327	     -5.72336009	    -20.45611908	     -6.88533781	      3.14265761	     -2.87608841	    -12.96504727	      6.44357948	     32.14049420	     89.95437384	      0.00000000	      0.00000000	    -10.78986301	      7.85363866	     26.06018209	     13.19040032	     89.95437384	      0.00000000	      0.00000000
      0.01000000	     14.16282777	      4.46402407	     -6.17176272	     -1.09297483	      0.93841318	      1.47693150	    -27.34869434	     -8.72873467	     -1.67493626	    -22.57674538	     -0.39403854	      7.24363970	     -5.30512299	     -1.96747942	      0.33839853	     -1.13876446	     22.56374552	    -15.44986486	     -0.26965101	     -0.83215520	     -7.70339146	     -5.73763432	    -20.41596428	     -6.87809442	      2.73118967	     -2.84579442	    -12.92423042	      6.47158626	     31.89893158	     89.95437384	      0.00000000	      0.00000000	    -10.70554237	      7.73580289	     25.82556921	     12.90730158	     89.95437384	      0.00000000	      0.00000000
      0.02000000	     14.18178776	      4.51074641	     -6.32588614	     -1.08621537	      0.93925379	      1.47494437	    -27.05411574	     -8.99667814	     -1.28291839	    -23.66207053	     -0.41298104	      6.16836300	     -5.44915227	     -1.80554305	     -0.07569566	     -1.41486663	     22.25094003	    -15.57149018	     -0.27177377	     -0.46186157	     -7.73075762	     -5.77284967	    -20.35943812	     -6.95459086	      2.64867677	     -2.83705435	    -12.89188466	      6.59081482	     31.61329075	     89.95437384	      0.00000000	      0.00000000	    -10.75614686	      7.54818552	     25.40198436	     12.98002020	     89.95437384	      0.00000000	      0.00000000
      0.03000000	     14.29919368	      4.69508107	     -6.70912465	     -1.07913000	      0.94029124	      1.47304520	    -26.85929075	     -9.43870999	     -0.50855164	    -24.68492658	     -0.43083324	      4.80546833	     -6.66139655	     -1.48466101	     -0.88185514	     -2.01176731	     22.08822954	    -15.04603732	     -0.26260289	     -0.44845384	     -7.71056448	     -6.09903578	    -20.33166429	     -7.23085035	      2.80474889	     -2.96621227	    -12.96308270	      6.81095076	     31.49497309	     89.95437384	      0.00000000	      0.00000000	    -10.78296111	      7.39360596	     24.43871424	     13.09822845	     89.95437384	      0.00000000	      0.00000000
      0.04000000	     14.30369692	      4.61123110	     -6.55268608	     -1.07246979	      0.94118202	      1.47066716	    -26.58122952	     -9.40309538	     -0.22016690	    -25.82926998	     -0.45080580	      3.93419600	     -6.57435092	     -1.38212115	     -1.22122416	     -2.14764735	     21.77273211	    -15.22553983	     -0.26573580	     -0.12905202	     -7.65827033	     -6.09335997	    -20.34637690	     -7.07295097	      2.45547195	     -2.98828986	    -12.94105059	      6.79917708	     31.37780892	     89.95437384	      0.00000000	      0.00000000	    -10.74242629	      7.22451473	     24.19508295	     13.24693355	     89.95437384	      0.00000000	      0.00000000
      0.05000000	     14.34548080	      4.51674899	     -6.53377358	     -1.06505071	      0.94214656	      1.46851528	    -26.35114946	     -9.47994398	     -0.22087093	    -26.84859192	     -0.46859633	      2.39257969	     -6.93986210	     -1.11972186	     -1.85895860	     -2.34544633	     21.49394549	    -15.00162659	     -0.26182778	      0.29569351	     -7.73599785	     -6.23026012	    -20.22432265	     -6.95725666	      2.36936285	     -3.11530187	    -12.95483098	      6.89969983	     31.08386089	     89.95437384	      0.00000000	      0.00000000	    -10.81541318	      7.04774736	     23.69313965	     13.51980583	     89.95437384	      0.00000000	      0.00000000
      0.06000000	     14.43156249	      4.37232667	     -6.62803590	     -1.05841204	      0.94311881	      1.46641989	    -26.00271017	     -9.55502979	     -0.03685457	    -28.05599200	     -0.48966944	      1.12704496	     -7.16343701	     -0.92688239	     -2.43311690	     -2.45965782	     21.50282919	    -14.95524380	     -0.26101824	      0.57648476	     -7.51796715	     -6.27328453	    -20.29535625	     -6.80580915	      2.32716909	     -3.14998683	    -13.02165382	      6.99991515	     30.98341161	     89.95437384	      0.00000000	      0.00000000	    -10.64343982	      6.88098681	     23.27849362	     13.59374553	     89.95437384	      0.00000000	      0.00000000
      0.07000000	     14.42682436	      4.27177287	     -6.40732212	     -1.05117811	      0.94388914	      1.46392356	    -25.77078354	     -9.50977449	     -0.03264679	    -29.04832859	     -0.50698898	      0.09833009	     -7.17201792	     -0.78415851	     -2.90083850	     -2.55987238	     21.51150484	    -14.97525298	     -0.26136747	      0.85872812	     -7.39609260	     -6.26337701	    -20.20748248	     -6.59876274	      1.94052231	     -3.27945475	    -13.02984986	      7.02475433	     30.92051484	     89.95437384	      0.00000000	      0.00000000	    -10.50728227	      6.73548373	     22.99770210	     13.62386185	     89.95437384	      0.00000000	      0.00000000
      0.08000000	     14.53607519	      4.05231211	     -6.50034879	     -1.04446681	      0.94474253	      1.46185760	    -25.41784561	     -9.58579395	     -0.14873849	    -30.27229416	     -0.52835121	     -1.42398383	     -7.32016987	     -0.54907775	     -3.49954581	     -2.59253786	     21.33412081	    -14.96035275	     -0.26110741	      1.24893620	     -7.35432221	     -6.28519663	    -20.27507672	     -6.37277068	      1.98307753	     -3.33525372	    -13.10034313	      7.11294827	     30.78221157	     89.95437384	      0.00000000	      0.00000000	    -10.26103723	      6.57751887	     22.67280489	     13.76974855	     89.95437384	      0.00000000	      0.00000000
      0.09000000	     14.57198658	      4.01516300	     -6.58468551	     -1.03744695	      0.94542803	      1.45960115	    -25.02080905	     -9.78880679	     -0.09167584	    -31.42423525	     -0.54845637	     -3.27881491	     -8.17453829	     -0.10228243	     -4.11885330	     -2.87014489	     21.18531573	    -14.68840821	     -0.25636109	      1.53706552	     -7.31846100	     -6.42289668	    -20.18602295	     -6.31295375	      1.99345503	     -3.52014296	    -13.21593541	      7.21835909	     30.75467786	     89.95437384	      0.00000000	      0.00000000	    -10.03412681	      6.46637019	     22.21093360	     13.85878491	     89.95437384	      0.00000000	      0.00000000
      0.10000000	     14.76325528	      3.76212166	     -6.46373418	     -1.03076395	      0.94634963	      1.45766066	    -24.92084152	     -9.55264160	      0.13730277	    -32.43910887	     -0.56616926	     -4.66880885	     -9.20044777	      0.70316674	     -4.80792743	     -2.84060119	     20.80164817	    -14.63843927	     -0.25548896	      1.82272082	     -6.89563853	     -6.85289457	    -20.38062742	     -6.04803517	      1.88551562	     -3.61293366	    -13.21678657	      7.18395573	     30.65701163	     89.95437384	      0.00000000	      0.00000000	     -9.76383313	      6.44885347	     21.45647454	     14.11243022	     89.95437384	      0.00000000	      0.00000000
      0.11000000	     14.88729635	      3.49292432	     -6.22459293	     -1.02376167	      0.94704183	      1.45562340	    -24.73128804	     -9.35779713	     -0.02581916	    -33.55355365	     -0.58561999	     -5.66108353	     -8.86838741	      0.86333885	     -5.31812045	     -2.69118654	     20.43245423	    -14.88366502	     -0.25976896	      2.25204382	     -6.90846081	     -6.87987290	    -20.42912034	     -5.72304975	      1.58984296	     -3.67748720	    -13.17136364	      7.12935113	     30.44046221	     89.95437384	      0.00000000	      0.00000000	     -9.50408044	      6.38243261	     21.06434422	     14.33272595	     89.95437384	      0.00000000	      0.00000000
      0.12000000	     15.01661116	      3.32787377	     -6.12560997	     -1.01736305	      0.94762924	      1.45365529	    -24.37036533	     -9.30591446	      0.03786851	    -34.88661214	     -0.60888625	     -6.54320020	     -8.90068050	      1.04136721	     -5.79119329	     -2.68509593	     20.11653794	    -15.10316326	     -0.26359993	      2.68125582	     -6.87567846	     -6.88938490	    -20.55707908	     -5.53900310	      1.41397582	     -3.68016630	    -13.12309747	      7.06163900	     30.24194947	     89.95437384	      0.00000000	      0.00000000	     -9.14216462	      6.34641946	     20.60449636	     14.58886664	     89.95437384	      0.00000000	      0.00000000
